<svg xmlns="http://www.w3.org/2000/svg" viewBox="0 0 600 450" width="600" height="450">
  <defs>
    <linearGradient id="csky" x1="0" y1="0" x2="0" y2="1">
      <stop offset="0%" stop-color="#0b1030"/>
      <stop offset="60%" stop-color="#2a2a6a"/>
      <stop offset="100%" stop-color="#7a3b8a"/>
    </linearGradient>
  </defs>
  <rect width="600" height="450" fill="url(#csky)"/>
  <circle cx="470" cy="80" r="34" fill="#fdf6c8"/>
  <g fill="#fff">
    <circle cx="60" cy="60" r="2"/><circle cx="150" cy="40" r="1.6"/>
    <circle cx="240" cy="70" r="2"/><circle cx="330" cy="45" r="1.6"/>
    <circle cx="120" cy="110" r="1.6"/><circle cx="300" cy="120" r="1.6"/>
    <circle cx="540" cy="150" r="2"/><circle cx="80" cy="180" r="1.6"/>
  </g>
  <g>
    <rect x="40" y="250" width="70" height="200" fill="#141a3a"/>
    <rect x="130" y="200" width="60" height="250" fill="#1b224a"/>
    <rect x="210" y="290" width="55" height="160" fill="#141a3a"/>
    <rect x="285" y="170" width="70" height="280" fill="#1b224a"/>
    <rect x="375" y="240" width="60" height="210" fill="#141a3a"/>
    <rect x="455" y="210" width="65" height="240" fill="#1b224a"/>
    <rect x="535" y="280" width="55" height="170" fill="#141a3a"/>
  </g>
  <g fill="#ffd873">
    <rect x="55" y="270" width="10" height="12"/><rect x="80" y="300" width="10" height="12"/>
    <rect x="145" y="220" width="10" height="12"/><rect x="165" y="260" width="10" height="12"/>
    <rect x="300" y="190" width="10" height="12"/><rect x="325" y="240" width="10" height="12"/>
    <rect x="390" y="260" width="10" height="12"/><rect x="470" y="230" width="10" height="12"/>
    <rect x="495" y="290" width="10" height="12"/><rect x="550" y="300" width="10" height="12"/>
  </g>
</svg>
