<svg xmlns="http://www.w3.org/2000/svg" viewBox="0 0 600 450" width="600" height="450">
  <defs>
    <linearGradient id="dsky" x1="0" y1="0" x2="0" y2="1">
      <stop offset="0%" stop-color="#ffcf87"/>
      <stop offset="60%" stop-color="#ffb15a"/>
      <stop offset="100%" stop-color="#e98a4b"/>
    </linearGradient>
  </defs>
  <rect width="600" height="450" fill="url(#dsky)"/>
  <circle cx="300" cy="150" r="55" fill="#fff1c2"/>
  <path d="M0 300 Q150 250 300 290 T600 280 V450 H0 Z" fill="#e6a057"/>
  <path d="M0 350 Q200 300 400 350 T600 340 V450 H0 Z" fill="#cf8442"/>
  <path d="M0 400 Q150 370 300 400 T600 395 V450 H0 Z" fill="#b56e34"/>
  <g fill="#3f7d4a">
    <rect x="450" y="300" width="20" height="110" rx="8"/>
    <rect x="430" y="330" width="18" height="45" rx="8"/>
    <rect x="430" y="330" width="40" height="16" rx="8"/>
    <rect x="470" y="315" width="18" height="45" rx="8"/>
    <rect x="470" y="345" width="40" height="16" rx="8"/>
  </g>
</svg>
