<svg xmlns="http://www.w3.org/2000/svg" viewBox="0 0 600 450" width="600" height="450">
  <defs>
    <radialGradient id="neb" cx="50%" cy="50%" r="60%">
      <stop offset="0%" stop-color="#ff8ad2"/>
      <stop offset="30%" stop-color="#8a5cf0"/>
      <stop offset="65%" stop-color="#2a2a7a"/>
      <stop offset="100%" stop-color="#080820"/>
    </radialGradient>
  </defs>
  <rect width="600" height="450" fill="#060616"/>
  <ellipse cx="300" cy="225" rx="290" ry="200" fill="url(#neb)" opacity="0.9"/>
  <ellipse cx="300" cy="225" rx="150" ry="60" fill="#ffe6f7" opacity="0.35" transform="rotate(-25 300 225)"/>
  <circle cx="300" cy="225" r="26" fill="#fff6fb"/>
  <g fill="#ffffff">
    <circle cx="70" cy="60" r="2.2"/><circle cx="150" cy="110" r="1.6"/>
    <circle cx="500" cy="70" r="2.2"/><circle cx="540" cy="160" r="1.6"/>
    <circle cx="90" cy="330" r="2"/><circle cx="200" cy="390" r="1.6"/>
    <circle cx="470" cy="360" r="2.2"/><circle cx="360" cy="400" r="1.6"/>
    <circle cx="250" cy="70" r="1.6"/><circle cx="420" cy="130" r="1.6"/>
    <circle cx="120" cy="220" r="1.4"/><circle cx="510" cy="270" r="1.8"/>
  </g>
  <g fill="#ffd0f0" opacity="0.85">
    <circle cx="220" cy="180" r="2"/><circle cx="380" cy="270" r="2"/>
    <circle cx="330" cy="160" r="1.6"/><circle cx="260" cy="300" r="1.6"/>
  </g>
</svg>
