<svg xmlns="http://www.w3.org/2000/svg" viewBox="0 0 512 512" width="512" height="512">
  <defs>
    <linearGradient id="bg" x1="0" y1="0" x2="0" y2="1">
      <stop offset="0" stop-color="#312e81"/>
      <stop offset="1" stop-color="#0f172a"/>
    </linearGradient>
    <linearGradient id="pc" x1="0" y1="0" x2="1" y2="1">
      <stop offset="0" stop-color="#818cf8"/>
      <stop offset="1" stop-color="#6366f1"/>
    </linearGradient>
  </defs>
  <rect width="512" height="512" fill="url(#bg)"/>
  <path fill="url(#pc)" stroke="#c7d2fe" stroke-width="8" stroke-linejoin="round" d="
    M176 136
    a34 34 0 0 1 68 0 c0 10 -6 16 -6 24 c0 8 8 12 18 12
    h48 v48 c0 10 4 18 12 18 c8 0 14 -6 24 -6 a34 34 0 0 1 0 68
    c-10 0 -16 -6 -24 -6 c-8 0 -12 8 -12 18 v48 h-48
    c-10 0 -18 4 -18 12 c0 8 6 14 6 24 a34 34 0 0 1 -68 0
    c0 -10 6 -16 6 -24 c0 -8 -8 -12 -18 -12 h-48 v-48
    c0 -10 -4 -18 -12 -18 c-8 0 -14 6 -24 6 a34 34 0 0 1 0 -68
    c10 0 16 6 24 6 c8 0 12 -8 12 -18 v-48 h48
    c10 0 18 -4 18 -12 c0 -8 -6 -14 -6 -24 z"/>
</svg>
